<svg xmlns="http://www.w3.org/2000/svg" width="256" height="256" viewBox="0 0 256 256">
<path d="M 128.0 30.72 L 46.08 87.04 L 46.08 220.16 L 209.92 220.16 L 209.92 87.04 Z" fill="none" stroke="#167d83" stroke-width="24" stroke-linejoin="round" stroke-linecap="round"/>
<path d="M73.87428571428572,148.48000000000002h5.8514285714285705a7.314285714285715,7.314285714285715 0 0 1 7.314285714285715,7.314285714285715v41.691428571428574a7.314285714285715,7.314285714285715 0 0 1 -7.314285714285715,7.314285714285715h-5.8514285714285705a7.314285714285715,7.314285714285715 0 0 1 -7.314285714285715,-7.314285714285715v-41.691428571428574a7.314285714285715,7.314285714285715 0 0 1 7.314285714285715,-7.314285714285715z" fill="#167d83"/>
<path d="M109.71428571428572,117.76h5.8514285714285705a7.314285714285715,7.314285714285715 0 0 1 7.314285714285715,7.314285714285715v72.41142857142857a7.314285714285715,7.314285714285715 0 0 1 -7.314285714285715,7.314285714285715h-5.8514285714285705a7.314285714285715,7.314285714285715 0 0 1 -7.314285714285715,-7.314285714285715v-72.41142857142857a7.314285714285715,7.314285714285715 0 0 1 7.314285714285715,-7.314285714285715z" fill="#167d83"/>
<path d="M145.55428571428573,81.92000000000002h5.8514285714285705a7.314285714285715,7.314285714285715 0 0 1 7.314285714285715,7.314285714285715v108.25142857142856a7.314285714285715,7.314285714285715 0 0 1 -7.314285714285715,7.314285714285715h-5.8514285714285705a7.314285714285715,7.314285714285715 0 0 1 -7.314285714285715,-7.314285714285715v-108.25142857142856a7.314285714285715,7.314285714285715 0 0 1 7.314285714285715,-7.314285714285715z" fill="#167d83"/>
</svg>